PathFileType	4	(X/Y/Z)	path1_05_0-945.trc
DataRate	CameraRate	NumFrames	NumMarkers	Units	OrigDataRate	OrigDataStartFrame	OrigNumFrames
30	30	5	22	m	30	236	945
Frame#	Time	Hip			RHip			RKnee			RAnkle			RBigToe			RSmallToe			RHeel			LHip			LKnee			LAnkle			LBigToe			LSmallToe			LHeel			Neck			Head			Nose			RShoulder			RElbow			RWrist			LShoulder			LElbow			LWrist		
		X1	Y1	Z1	X2	Y2	Z2	X3	Y3	Z3	X4	Y4	Z4	X5	Y5	Z5	X6	Y6	Z6	X7	Y7	Z7	X8	Y8	Z8	X9	Y9	Z9	X10	Y10	Z10	X11	Y11	Z11	X12	Y12	Z12	X13	Y13	Z13	X14	Y14	Z14	X15	Y15	Z15	X16	Y16	Z16	X17	Y17	Z17	X18	Y18	Z18	X19	Y19	Z19	X20	Y20	Z20	X21	Y21	Z21	X22	Y22	Z22
237	7.9	-1.682613538654206	0.816955111179098	0.2533284981937704	-1.6836616039522794	0.7987320449969423	0.33682548354534636	-1.7014670815407311	0.4700301384230485	0.30337477026133775	-1.722899252126143	0.12100550054197845	0.3102549387145063	-1.5663824444740595	0.03199003046228169	0.33628994968706294	-1.5925539274922145	0.03405467042066502	0.39397952700227395	-1.760444879518745	0.061399753574348195	0.3118683425260721	-1.6686989080119232	0.792555976831771	0.1852463430836291	-1.6680502559344688	0.440976877949613	0.17755235775784758	-1.7025047951436603	0.10350485644616081	0.17549184751166558	-1.5273828907908138	0.017686401539995362	0.15428136720266078	-1.5516158246244294	0.025923163077127696	0.10065328539227993	-1.770465385371918	0.034207022800058696	0.15648397237174363	-1.6779959005596965	1.450529221608959	0.20985595990243222	-1.6122267148750802	1.7230342845501225	0.2623828715204985	-1.5447854782424884	1.595542348407612	0.2743461290166713	-1.738961333758121	1.3558588532264617	0.35807315435028825	-1.719998373217413	1.0561972599441924	0.39192844343688515	-1.623219379907293	0.8553792479885032	0.46237722409182025	-1.7079563187313642	1.3336421030603827	0.1339945006468424	-1.696911152486271	1.041512300867764	0.1055432154770607	-1.6069595719127856	0.8573923674405003	0.05740706889832809
238	7.933333333333334	-1.6818440828102699	0.8158978215166784	0.255333848120829	-1.683531322696445	0.798162818383518	0.3397772837877887	-1.7025225301248503	0.46909629250703777	0.3077867758508628	-1.7215755358984979	0.12096906590772545	0.31152207919912445	-1.566253151994209	0.029930372345071062	0.3345610888025812	-1.5929207969202013	0.03299674440273458	0.39131838879392383	-1.759037960681355	0.06156890924338387	0.31169883842693935	-1.6669684888019567	0.7915373093326096	0.18848631167215107	-1.6682791289451342	0.44115805085203996	0.17944695282752732	-1.6999332056444199	0.10555637549728232	0.1766853104967417	-1.5315610749806747	0.015463392125261355	0.1533846032437536	-1.5520944432006893	0.02500095725400737	0.10096745771706717	-1.743405559517373	0.03622440753923061	0.177578051049444	-1.6780956352941534	1.4504888770306668	0.21180533156323053	-1.6131380895550083	1.7228735023796127	0.2698031698700768	-1.5434091232485103	1.5974755974456298	0.2698364118686655	-1.7394230884889699	1.3563506920784734	0.35837567126067454	-1.7196860334545883	1.0555768858365326	0.3919849206360097	-1.6234940797963808	0.8552997040027667	0.46204722252756747	-1.7006587952703802	1.3500070074844623	0.04135136786715941	-1.6970411044846034	1.0394506443329923	0.10534319063623156	-1.6081167342804337	0.8569043739627192	0.05753506547173208
239	7.966666666666667	-1.6862761913137176	0.8164519188014606	0.25332103360733266	-1.6874084320477922	0.7984892120510061	0.33801514889110545	-1.7039913597534149	0.4705038881063186	0.3041049604029013	-1.7226581452704026	0.12066618754468683	0.30985063090577153	-1.565601305489377	0.032576763745423586	0.3341662989982094	-1.59228726599139	0.03515561534352248	0.3925970632969237	-1.76157881186104	0.0589887922840782	0.31186007594858944	-1.6708868180568484	0.7948146053704943	0.18328135787904162	-1.6662378290951116	0.4429358606123046	0.1781709882447408	-1.699992515438394	0.1060172461789664	0.1756618160693939	-1.546696017928162	0.010875492457599221	0.1306314416692167	-1.5534321645021403	0.025960041011905705	0.09925193033641354	-1.7748580305036135	0.018307654120750336	0.17911213253479338	-1.6801736155877733	1.4488900813861818	0.21289241151862914	-1.6087219236099526	1.7231446659361107	0.2610896613518994	-1.5447223243381198	1.595112273279995	0.26421240987018696	-1.7414135079927802	1.3564126099103102	0.3578758015846798	-1.7219281342502584	1.055294126381523	0.3916159024855891	-1.6251640731468213	0.8543047817941464	0.46174768491326035	-1.7035018747738688	1.3524174834573661	0.03963973660641462	-1.7006488886101756	1.0421195758513702	0.10605243251395392	-1.6084772998165924	0.8565542259590019	0.05711617861233305
240	8.0	-1.682300464789413	0.8173368424088461	0.25308117923663914	-1.686523209511872	0.7989871374909046	0.33955302135354776	-1.7028770065603673	0.4700035645635644	0.3049607095173406	-1.723160556316149	0.12292905533947439	0.312272036056477	-1.5666961450078616	0.030054403357845393	0.3321981611871629	-1.5943678191980202	0.03263755572267197	0.39169197712243464	-1.7594833159241827	0.06258220744277573	0.31309202420121085	-1.6691919653377443	0.7911932453963281	0.18687679273836608	-1.6683962695566228	0.44190773889575485	0.17811107652348981	-1.7013146807042208	0.10446443160689661	0.1761921830571632	-1.5306162035090667	0.01642000837764739	0.15332546589562576	-1.5551601087985503	0.02491303638530233	0.10047752161210466	-1.7687112120980515	0.036119861073339254	0.15848037548307614	-1.6781751094742066	1.4523135486294931	0.21153429352117636	-1.6143601380883608	1.7211795434986752	0.265637974771064	-1.5440684455251037	1.595303280837469	0.2758849199291786	-1.7400208404448092	1.3554138640578481	0.3578064606611007	-1.7207543981299016	1.0550813479040344	0.3939875528088302	-1.6469771408225837	0.849105966501649	0.4206998247579894	-1.6989384730021349	1.3506088428846574	0.04256905011616251	-1.6973288470922092	1.040887471841241	0.10448643854566265	-1.6076845342228425	0.8558766510096057	0.05840710359408189
241	8.033333333333333	-1.6830886811170376	0.815261734558219	0.2531906695452775	-1.687145276066108	0.7855328680964948	0.33397460684928126	-1.7072540853512357	0.4615076553446027	0.3017926458664272	-1.7255593495294872	0.118089944550649	0.31068007831511446	-1.5687468956805688	0.02955125035918115	0.3331461784003369	-1.595212587170947	0.03464462264474989	0.39404520488178774	-1.7635426475774967	0.059530933815686526	0.3102117765730342	-1.6704748117545778	0.7826441702755121	0.18465610129545557	-1.696751706896718	0.4487270300061814	0.21041037380414532	-1.7011609923735356	0.10386604701569357	0.1766791290738854	-1.5481701213793089	0.011646231525156184	0.13603492920049148	-1.5593241335282944	0.02586427447929111	0.09831460783190091	-1.7694828727865026	0.03406228918682848	0.15586538199953684	-1.6774386727239152	1.4539821270136914	0.21315978088053972	-1.6228161188761405	1.7140666073195787	0.2523962610483724	-1.5434397634663046	1.5980332929669692	0.25775975867994316	-1.7411645806503826	1.3520083071651765	0.3601247193916694	-1.7215804011346043	1.052708183077728	0.39379279213622814	-1.6260410744298173	0.8547270211993496	0.4627665049266799	-1.709746904516497	1.3320592755761411	0.13391338127189498	-1.6992834787536175	1.0379838207701615	0.10581582324378537	-1.6093032827774718	0.8553700495480583	0.060653017141974346
